<svg xmlns="http://www.w3.org/2000/svg" xmlns:xlink="http://www.w3.org/1999/xlink" width="2100" height="1500" viewBox="0 0 2100 1500">
  <metadata><?xpacket begin="﻿" id="W5M0MpCehiHzreSzNTczkc9d"?>
<x:xmpmeta xmlns:x="adobe:ns:meta/" x:xmptk="Adobe XMP Core 5.6-c142 79.160924, 2017/07/13-01:06:39        ">
   <rdf:RDF xmlns:rdf="http://www.w3.org/1999/02/22-rdf-syntax-ns#">
      <rdf:Description rdf:about=""/>
   </rdf:RDF>
</x:xmpmeta>
                                                                                                    
                                                                                                    
                                                                                                    
                                                                                                    
                                                                                                    
                                                                                                    
                                                                                                    
                                                                                                    
                                                                                                    
                                                                                                    
                                                                                                    
                                                                                                    
                                                                                                    
                                                                                                    
                                                                                                    
                                                                                                    
                                                                                                    
                                                                                                    
                                                                                                    
                                                                                                    
                           
<?xpacket end="w"?></metadata>
<defs>
    <style>
      .cls-1 {
        fill: none;
        stroke: #333;
        stroke-width: 35px;
        fill-rule: evenodd;
      }
    </style>
  </defs>
  <path class="cls-1" d="M487.5,718A37.5,37.5,0,1,1,450,755.5,37.5,37.5,0,0,1,487.5,718ZM1234,601.5a37.5,37.5,0,1,1-37.5,37.5A37.5,37.5,0,0,1,1234,601.5Zm95.5,112A37.5,37.5,0,1,1,1292,751,37.5,37.5,0,0,1,1329.5,713.5ZM1050,1347a37.5,37.5,0,1,1-37.5,37.5A37.5,37.5,0,0,1,1050,1347Zm413.5-597a37.5,37.5,0,1,1-37.5,37.5A37.5,37.5,0,0,1,1463.5,750ZM1165,451a37.5,37.5,0,1,1-37.5,37.5A37.5,37.5,0,0,1,1165,451Zm298.5-304.5A37.5,37.5,0,1,1,1426,184,37.5,37.5,0,0,1,1463.5,146.5Zm-267,1160A37.5,37.5,0,1,1,1159,1344,37.5,37.5,0,0,1,1196.5,1306.5ZM903,1307a37.5,37.5,0,1,1-37.5,37.5A37.5,37.5,0,0,1,903,1307Zm-99-85a37.5,37.5,0,1,1-37.5,37.5A37.5,37.5,0,0,1,804,1222Zm525-300.5a37.5,37.5,0,1,1-37.5,37.5A37.5,37.5,0,0,1,1329,921.5Zm301-209a37.5,37.5,0,1,1-37.5,37.5A37.5,37.5,0,0,1,1630,712.5ZM804,713a37.5,37.5,0,1,1-37.5,37.5A37.5,37.5,0,0,1,804,713ZM340.5,451.5A37.5,37.5,0,1,1,303,489,37.5,37.5,0,0,1,340.5,451.5Zm596-3A37.5,37.5,0,1,1,899,486,37.5,37.5,0,0,1,936.5,448.5ZM636.5,755A37.5,37.5,0,1,1,599,792.5,37.5,37.5,0,0,1,636.5,755ZM903,602a37.5,37.5,0,1,1-37.5,37.5A37.5,37.5,0,0,1,903,602Zm300,202.5a37.5,37.5,0,1,1-37.5,37.5A37.5,37.5,0,0,1,1203,804.5Zm-153-54a37.5,37.5,0,1,1-37.5,37.5A37.5,37.5,0,0,1,1050,750.5Zm258,471a37.5,37.5,0,1,1-37.5,37.5A37.5,37.5,0,0,1,1308,1221.5Zm-411-417A37.5,37.5,0,1,1,859.5,842,37.5,37.5,0,0,1,897,804.5Zm453,259a37.5,37.5,0,1,1-37.5,37.5A37.5,37.5,0,0,1,1350,1063.5Zm-562-142A37.5,37.5,0,1,1,750.5,959,37.5,37.5,0,0,1,788,921.5Zm-37,142a37.5,37.5,0,1,1-37.5,37.5A37.5,37.5,0,0,1,751,1063.5ZM470,189a37.5,37.5,0,1,1-37.5,37.5A37.5,37.5,0,0,1,470,189ZM378,301a37.5,37.5,0,1,1-37.5,37.5A37.5,37.5,0,0,1,378,301ZM788,189a37.5,37.5,0,1,1-37.5,37.5A37.5,37.5,0,0,1,788,189ZM903,301a37.5,37.5,0,1,1-37.5,37.5A37.5,37.5,0,0,1,903,301ZM377,602a37.5,37.5,0,1,1-37.5,37.5A37.5,37.5,0,0,1,377,602ZM637,149a37.5,37.5,0,1,1-37.5,37.5A37.5,37.5,0,0,1,637,149ZM1725,298.5a37.5,37.5,0,1,1-37.5,37.5A37.5,37.5,0,0,1,1725,298.5Zm-95-110a37.5,37.5,0,1,1-37.5,37.5A37.5,37.5,0,0,1,1630,188.5Zm-396,112a37.5,37.5,0,1,1-37.5,37.5A37.5,37.5,0,0,1,1234,300.5Zm528,151a37.5,37.5,0,1,1-37.5,37.5A37.5,37.5,0,0,1,1762,451.5Zm-433-263a37.5,37.5,0,1,1-37.5,37.5A37.5,37.5,0,0,1,1329,188.5Zm396,413a37.5,37.5,0,1,1-37.5,37.5A37.5,37.5,0,0,1,1725,601.5Z"/>
  <path class="cls-1" d="M1050.5,909c103.55,0,187.5,83.947,187.5,187.5S1154.05,1284,1050.5,1284,863,1200.05,863,1096.5,946.947,909,1050.5,909Zm-412-610.5C742.053,298.5,826,382.447,826,486S742.053,673.5,638.5,673.5,451,589.553,451,486,534.947,298.5,638.5,298.5Zm825,0c103.55,0,187.5,83.947,187.5,187.5s-83.95,187.5-187.5,187.5S1276,589.553,1276,486,1359.95,298.5,1463.5,298.5Z"/>
  <image id="Rectangle_1" data-name="Rectangle 1" width="NaN" height="NaN"/>
</svg>
