<svg xmlns="http://www.w3.org/2000/svg" xmlns:xlink="http://www.w3.org/1999/xlink" width="2100" height="1500" viewBox="0 0 2100 1500">
  <metadata><?xpacket begin="﻿" id="W5M0MpCehiHzreSzNTczkc9d"?>
<x:xmpmeta xmlns:x="adobe:ns:meta/" x:xmptk="Adobe XMP Core 5.6-c142 79.160924, 2017/07/13-01:06:39        ">
   <rdf:RDF xmlns:rdf="http://www.w3.org/1999/02/22-rdf-syntax-ns#">
      <rdf:Description rdf:about=""/>
   </rdf:RDF>
</x:xmpmeta>
                                                                                                    
                                                                                                    
                                                                                                    
                                                                                                    
                                                                                                    
                                                                                                    
                                                                                                    
                                                                                                    
                                                                                                    
                                                                                                    
                                                                                                    
                                                                                                    
                                                                                                    
                                                                                                    
                                                                                                    
                                                                                                    
                                                                                                    
                                                                                                    
                                                                                                    
                                                                                                    
                           
<?xpacket end="w"?></metadata>
<defs>
    <style>
      .cls-1 {
        fill: none;
        stroke: #333;
        stroke-width: 35px;
        fill-rule: evenodd;
      }
    </style>
  </defs>
  <path class="cls-1" d="M413,600a37.5,37.5,0,1,1-37.5,37.5A37.5,37.5,0,0,1,413,600Zm1127,0a37.5,37.5,0,1,1-37.5,37.5A37.5,37.5,0,0,1,1540,600ZM413,1238a37.5,37.5,0,1,1-37.5,37.5A37.5,37.5,0,0,1,413,1238Zm150,0a37.5,37.5,0,1,1-37.5,37.5A37.5,37.5,0,0,1,563,1238ZM861,600.5A37.5,37.5,0,1,1,823.5,638,37.5,37.5,0,0,1,861,600.5Zm524.5,0A37.5,37.5,0,1,1,1348,638,37.5,37.5,0,0,1,1385.5,600.5Zm-522,638A37.5,37.5,0,1,1,826,1276,37.5,37.5,0,0,1,863.5,1238.5Zm-151.5,0a37.5,37.5,0,1,1-37.5,37.5A37.5,37.5,0,0,1,712,1238.5ZM562.5,600A37.5,37.5,0,1,1,525,637.5,37.5,37.5,0,0,1,562.5,600Zm1125,0.5A37.5,37.5,0,1,1,1650,638,37.5,37.5,0,0,1,1687.5,600.5Zm-449,638A37.5,37.5,0,1,1,1201,1276,37.5,37.5,0,0,1,1238.5,1238.5Zm147,0A37.5,37.5,0,1,1,1348,1276,37.5,37.5,0,0,1,1385.5,1238.5ZM711.5,600A37.5,37.5,0,1,1,674,637.5,37.5,37.5,0,0,1,711.5,600Zm525,1a37.5,37.5,0,1,1-37.5,37.5A37.5,37.5,0,0,1,1236.5,601Zm451,637.5A37.5,37.5,0,1,1,1650,1276,37.5,37.5,0,0,1,1687.5,1238.5Zm-147,0A37.5,37.5,0,1,1,1503,1276,37.5,37.5,0,0,1,1540.5,1238.5Z"/>
  <path class="cls-1" d="M375,190H901V526H375V190Zm824,0h526V526H1199V190ZM373,831H899v336H373V831Zm828,0h526v336H1201V831Z"/>
  <image id="Rectangle_1" data-name="Rectangle 1" width="NaN" height="NaN"/>
</svg>
