<svg xmlns="http://www.w3.org/2000/svg" xmlns:xlink="http://www.w3.org/1999/xlink" width="2100" height="1500" viewBox="0 0 2100 1500">
  <metadata><?xpacket begin="﻿" id="W5M0MpCehiHzreSzNTczkc9d"?>
<x:xmpmeta xmlns:x="adobe:ns:meta/" x:xmptk="Adobe XMP Core 5.6-c142 79.160924, 2017/07/13-01:06:39        ">
   <rdf:RDF xmlns:rdf="http://www.w3.org/1999/02/22-rdf-syntax-ns#">
      <rdf:Description rdf:about=""/>
   </rdf:RDF>
</x:xmpmeta>
                                                                                                    
                                                                                                    
                                                                                                    
                                                                                                    
                                                                                                    
                                                                                                    
                                                                                                    
                                                                                                    
                                                                                                    
                                                                                                    
                                                                                                    
                                                                                                    
                                                                                                    
                                                                                                    
                                                                                                    
                                                                                                    
                                                                                                    
                                                                                                    
                                                                                                    
                                                                                                    
                           
<?xpacket end="w"?></metadata>
<defs>
    <style>
      .cls-1 {
        fill: none;
        stroke: #333;
        stroke-width: 35px;
        fill-rule: evenodd;
      }
    </style>
  </defs>
  <path class="cls-1" d="M790.5,301A37.5,37.5,0,1,1,753,338.5,37.5,37.5,0,0,1,790.5,301Zm673-37a37.5,37.5,0,1,1-37.5,37.5A37.5,37.5,0,0,1,1463.5,264ZM1248,300a37.5,37.5,0,1,1-37.5,37.5A37.5,37.5,0,0,1,1248,300Zm127,676a37.5,37.5,0,1,1-37.5,37.5A37.5,37.5,0,0,1,1375,976ZM1013,450.5A37.5,37.5,0,1,1,975.5,488,37.5,37.5,0,0,1,1013,450.5Zm160,89a37.5,37.5,0,1,1-37.5,37.5A37.5,37.5,0,0,1,1173,539.5Zm-572.5-52A37.5,37.5,0,1,1,563,525,37.5,37.5,0,0,1,600.5,487.5Zm281.5,90A37.5,37.5,0,1,1,844.5,615,37.5,37.5,0,0,1,882,577.5ZM1087.5,688a37.5,37.5,0,1,1-37.5,37.5A37.5,37.5,0,0,1,1087.5,688Zm325-162.5A37.5,37.5,0,1,1,1375,563,37.5,37.5,0,0,1,1412.5,525.5Zm-400,676.5a37.5,37.5,0,1,1-37.5,37.5A37.5,37.5,0,0,1,1012.5,1202Zm-375,35.5A37.5,37.5,0,1,1,600,1275,37.5,37.5,0,0,1,637.5,1237.5ZM1462,1238a37.5,37.5,0,1,1-37.5,37.5A37.5,37.5,0,0,1,1462,1238ZM713,983a37.5,37.5,0,1,1-37.5,37.5A37.5,37.5,0,0,1,713,983Zm900-458a37.5,37.5,0,1,1-37.5,37.5A37.5,37.5,0,0,1,1613,525ZM375,563a37.5,37.5,0,1,1-37.5,37.5A37.5,37.5,0,0,1,375,563ZM938,189a37.5,37.5,0,1,1-37.5,37.5A37.5,37.5,0,0,1,938,189Zm235,899a37.5,37.5,0,1,1-37.5,37.5A37.5,37.5,0,0,1,1173,1088ZM679,687a37.5,37.5,0,1,1-37.5,37.5A37.5,37.5,0,0,1,679,687Zm1009,38a37.5,37.5,0,1,1-37.5,37.5A37.5,37.5,0,0,1,1688,725ZM488,263a37.5,37.5,0,1,1-37.5,37.5A37.5,37.5,0,0,1,488,263Zm38,575a37.5,37.5,0,1,1-37.5,37.5A37.5,37.5,0,0,1,526,838Zm-75,288a37.5,37.5,0,1,1-37.5,37.5A37.5,37.5,0,0,1,451,1126Zm356,38a37.5,37.5,0,1,1-37.5,37.5A37.5,37.5,0,0,1,807,1164Zm732-297a37.5,37.5,0,1,1-37.5,37.5A37.5,37.5,0,0,1,1539,867ZM1350,725a37.5,37.5,0,1,1-37.5,37.5A37.5,37.5,0,0,1,1350,725Zm338.5-350a37.5,37.5,0,1,1-37.5,37.5A37.5,37.5,0,0,1,1688.5,375Zm-806,439A37.5,37.5,0,1,1,845,851.5,37.5,37.5,0,0,1,882.5,814Zm168,131a37.5,37.5,0,1,1-37.5,37.5A37.5,37.5,0,0,1,1050.5,945Z"/>
  <image id="Rectangle_1" data-name="Rectangle 1" width="NaN" height="NaN"/>
</svg>
