<svg xmlns="http://www.w3.org/2000/svg" xmlns:xlink="http://www.w3.org/1999/xlink" width="2100" height="1500" viewBox="0 0 2100 1500">
  <metadata><?xpacket begin="﻿" id="W5M0MpCehiHzreSzNTczkc9d"?>
<x:xmpmeta xmlns:x="adobe:ns:meta/" x:xmptk="Adobe XMP Core 5.6-c142 79.160924, 2017/07/13-01:06:39        ">
   <rdf:RDF xmlns:rdf="http://www.w3.org/1999/02/22-rdf-syntax-ns#">
      <rdf:Description rdf:about=""/>
   </rdf:RDF>
</x:xmpmeta>
                                                                                                    
                                                                                                    
                                                                                                    
                                                                                                    
                                                                                                    
                                                                                                    
                                                                                                    
                                                                                                    
                                                                                                    
                                                                                                    
                                                                                                    
                                                                                                    
                                                                                                    
                                                                                                    
                                                                                                    
                                                                                                    
                                                                                                    
                                                                                                    
                                                                                                    
                                                                                                    
                           
<?xpacket end="w"?></metadata>
<defs>
    <style>
      .cls-1 {
        fill: none;
        stroke: #333;
        stroke-width: 35px;
        fill-rule: evenodd;
      }
    </style>
  </defs>
  <path class="cls-1" d="M413.5,1057a37.5,37.5,0,1,1-37.5,37.5A37.5,37.5,0,0,1,413.5,1057ZM1502,707a37.5,37.5,0,1,1-37.5,37.5A37.5,37.5,0,0,1,1502,707Zm185.5,6a37.5,37.5,0,1,1-37.5,37.5A37.5,37.5,0,0,1,1687.5,713Zm0,176a37.5,37.5,0,1,1-37.5,37.5A37.5,37.5,0,0,1,1687.5,889ZM1500,526a37.5,37.5,0,1,1-37.5,37.5A37.5,37.5,0,0,1,1500,526Zm187.5-337.5A37.5,37.5,0,1,1,1650,226,37.5,37.5,0,0,1,1687.5,188.5ZM600,1225.5a37.5,37.5,0,1,1-37.5,37.5A37.5,37.5,0,0,1,600,1225.5Zm0-168a37.5,37.5,0,1,1-37.5,37.5A37.5,37.5,0,0,1,600,1057.5Zm188,168a37.5,37.5,0,1,1-37.5,37.5A37.5,37.5,0,0,1,788,1225.5Zm714-167a37.5,37.5,0,1,1-37.5,37.5A37.5,37.5,0,0,1,1502,1058.5Zm-902-870A37.5,37.5,0,1,1,562.5,226,37.5,37.5,0,0,1,600,188.5Zm186.5,336A37.5,37.5,0,1,1,749,562,37.5,37.5,0,0,1,786.5,524.5Zm1-336A37.5,37.5,0,1,1,750,226,37.5,37.5,0,0,1,787.5,188.5Zm-375,518A37.5,37.5,0,1,1,375,744,37.5,37.5,0,0,1,412.5,706.5ZM787,356.5A37.5,37.5,0,1,1,749.5,394,37.5,37.5,0,0,1,787,356.5Zm715,533a37.5,37.5,0,1,1-37.5,37.5A37.5,37.5,0,0,1,1502,889.5Zm-714-177A37.5,37.5,0,1,1,750.5,750,37.5,37.5,0,0,1,788,712.5Zm-188,177A37.5,37.5,0,1,1,562.5,927,37.5,37.5,0,0,1,600,889.5ZM788,1058a37.5,37.5,0,1,1-37.5,37.5A37.5,37.5,0,0,1,788,1058ZM600,712.5A37.5,37.5,0,1,1,562.5,750,37.5,37.5,0,0,1,600,712.5ZM788,889a37.5,37.5,0,1,1-37.5,37.5A37.5,37.5,0,0,1,788,889ZM413,356a37.5,37.5,0,1,1-37.5,37.5A37.5,37.5,0,0,1,413,356Zm187,0a37.5,37.5,0,1,1-37.5,37.5A37.5,37.5,0,0,1,600,356Zm0,169a37.5,37.5,0,1,1-37.5,37.5A37.5,37.5,0,0,1,600,525Zm1088,0.5a37.5,37.5,0,1,1-37.5,37.5A37.5,37.5,0,0,1,1688,525.5Zm0-169.5a37.5,37.5,0,1,1-37.5,37.5A37.5,37.5,0,0,1,1688,356Zm-377,869.5a37.5,37.5,0,1,1-37.5,37.5A37.5,37.5,0,0,1,1311,1225.5Zm377-167a37.5,37.5,0,1,1-37.5,37.5A37.5,37.5,0,0,1,1688,1058.5ZM1501,1225a37.5,37.5,0,1,1-37.5,37.5A37.5,37.5,0,0,1,1501,1225Zm187,0a37.5,37.5,0,1,1-37.5,37.5A37.5,37.5,0,0,1,1688,1225ZM413,188a37.5,37.5,0,1,1-37.5,37.5A37.5,37.5,0,0,1,413,188Zm1,336a37.5,37.5,0,1,1-37.5,37.5A37.5,37.5,0,0,1,414,524Zm0,365a37.5,37.5,0,1,1-37.5,37.5A37.5,37.5,0,0,1,414,889Zm-1,336a37.5,37.5,0,1,1-37.5,37.5A37.5,37.5,0,0,1,413,1225ZM1502,188.5a37.5,37.5,0,1,1-37.5,37.5A37.5,37.5,0,0,1,1502,188.5Zm-191,870a37.5,37.5,0,1,1-37.5,37.5A37.5,37.5,0,0,1,1311,1058.5Zm0-169a37.5,37.5,0,1,1-37.5,37.5A37.5,37.5,0,0,1,1311,889.5Zm0-183a37.5,37.5,0,1,1-37.5,37.5A37.5,37.5,0,0,1,1311,706.5Zm0-182a37.5,37.5,0,1,1-37.5,37.5A37.5,37.5,0,0,1,1311,524.5Zm0-168a37.5,37.5,0,1,1-37.5,37.5A37.5,37.5,0,0,1,1311,356.5Zm0-168a37.5,37.5,0,1,1-37.5,37.5A37.5,37.5,0,0,1,1311,188.5Zm191,168a37.5,37.5,0,1,1-37.5,37.5A37.5,37.5,0,0,1,1502,356.5Z"/>
  <image id="Rectangle_1" data-name="Rectangle 1" width="NaN" height="NaN"/>
</svg>
