<svg xmlns="http://www.w3.org/2000/svg" xmlns:xlink="http://www.w3.org/1999/xlink" width="2100" height="1500" viewBox="0 0 2100 1500">
  <metadata><?xpacket begin="﻿" id="W5M0MpCehiHzreSzNTczkc9d"?>
<x:xmpmeta xmlns:x="adobe:ns:meta/" x:xmptk="Adobe XMP Core 5.6-c142 79.160924, 2017/07/13-01:06:39        ">
   <rdf:RDF xmlns:rdf="http://www.w3.org/1999/02/22-rdf-syntax-ns#">
      <rdf:Description rdf:about=""/>
   </rdf:RDF>
</x:xmpmeta>
                                                                                                    
                                                                                                    
                                                                                                    
                                                                                                    
                                                                                                    
                                                                                                    
                                                                                                    
                                                                                                    
                                                                                                    
                                                                                                    
                                                                                                    
                                                                                                    
                                                                                                    
                                                                                                    
                                                                                                    
                                                                                                    
                                                                                                    
                                                                                                    
                                                                                                    
                                                                                                    
                           
<?xpacket end="w"?></metadata>
<defs>
    <style>
      .cls-1 {
        fill: none;
        stroke: #333;
        stroke-width: 35px;
        fill-rule: evenodd;
      }
    </style>
  </defs>
  <path class="cls-1" d="M376,1050a37.5,37.5,0,1,1-37.5,37.5A37.5,37.5,0,0,1,376,1050Zm1349.5,0a37.5,37.5,0,1,1-37.5,37.5A37.5,37.5,0,0,1,1725.5,1050ZM825,1276a37.5,37.5,0,1,1-37.5,37.5A37.5,37.5,0,0,1,825,1276Zm900.5-431a37.5,37.5,0,1,1-37.5,37.5A37.5,37.5,0,0,1,1725.5,845Zm-188,430.5A37.5,37.5,0,1,1,1500,1313,37.5,37.5,0,0,1,1537.5,1275.5Zm-261-.5a37.5,37.5,0,1,1-37.5,37.5A37.5,37.5,0,0,1,1276.5,1275Zm-226,0a37.5,37.5,0,1,1-37.5,37.5A37.5,37.5,0,0,1,1050.5,1275Zm-488,0a37.5,37.5,0,1,1-37.5,37.5A37.5,37.5,0,0,1,562.5,1275Zm-186-804A37.5,37.5,0,1,1,339,508.5,37.5,37.5,0,0,1,376.5,471Zm0,374A37.5,37.5,0,1,1,339,882.5,37.5,37.5,0,0,1,376.5,845Zm0-554.5A37.5,37.5,0,1,1,339,328,37.5,37.5,0,0,1,376.5,290.5Zm1349,0A37.5,37.5,0,1,1,1688,328,37.5,37.5,0,0,1,1725.5,290.5Zm0,385A37.5,37.5,0,1,1,1688,713,37.5,37.5,0,0,1,1725.5,675.5ZM819.3,225H480v975H1611V225H1271.7V834.375H819.3V225Zm906.2,245.5A37.5,37.5,0,1,1,1688,508,37.5,37.5,0,0,1,1725.5,470.5ZM376.5,675A37.5,37.5,0,1,1,339,712.5,37.5,37.5,0,0,1,376.5,675Z"/>
  <image id="Rectangle_1" data-name="Rectangle 1" width="NaN" height="NaN"/>
</svg>
